<svg width="12" height="12" viewBox="0 0 12 12" fill="none" xmlns="http://www.w3.org/2000/svg">
<path d="M11 9.5V11H1V9.5C1 9.225 1.225 9 1.5 9H10.5C10.775 9 11 9.225 11 9.5Z" fill="#6200EE" stroke="#6200EE" stroke-width="1.5" stroke-miterlimit="10" stroke-linecap="round" stroke-linejoin="round"/>
<path d="M3.5 5.5H2.5V9H3.5V5.5Z" fill="#6200EE"/>
<path d="M5.5 5.5H4.5V9H5.5V5.5Z" fill="#6200EE"/>
<path d="M7.5 5.5H6.5V9H7.5V5.5Z" fill="#6200EE"/>
<path d="M9.5 5.5H8.5V9H9.5V5.5Z" fill="#6200EE"/>
<path d="M11.5 11.375H0.5C0.295 11.375 0.125 11.205 0.125 11C0.125 10.795 0.295 10.625 0.5 10.625H11.5C11.705 10.625 11.875 10.795 11.875 11C11.875 11.205 11.705 11.375 11.5 11.375Z" fill="#6200EE"/>
<path d="M10.685 2.87492L6.185 1.07492C6.085 1.03492 5.915 1.03492 5.815 1.07492L1.315 2.87492C1.14 2.94492 1 3.14992 1 3.33992V4.99992C1 5.27492 1.225 5.49992 1.5 5.49992H10.5C10.775 5.49992 11 5.27492 11 4.99992V3.33992C11 3.14992 10.86 2.94492 10.685 2.87492ZM6 4.24992C5.585 4.24992 5.25 3.91492 5.25 3.49992C5.25 3.08492 5.585 2.74992 6 2.74992C6.415 2.74992 6.75 3.08492 6.75 3.49992C6.75 3.91492 6.415 4.24992 6 4.24992Z" fill="#6200EE"/>
</svg>
