<svg width="22" height="22" viewBox="0 0 22 22" fill="none" xmlns="http://www.w3.org/2000/svg">
<path d="M17.7758 14.3539C16.7459 13.4698 15.7007 12.9343 14.6835 13.817L14.0761 14.3506C13.6316 14.7379 12.8053 16.5475 9.61056 12.8588C6.41644 9.17478 8.31721 8.60118 8.7623 8.21722L9.37304 7.68301C10.385 6.79822 10.0031 5.6844 9.27325 4.53786L8.83282 3.84339C8.09966 2.69952 7.30129 1.94829 6.28671 2.83173L5.7385 3.31252C5.29009 3.64039 4.03666 4.70613 3.73261 6.73078C3.3667 9.16009 4.521 11.942 7.16557 14.9943C9.80682 18.048 12.3929 19.5818 14.8425 19.5551C16.8783 19.5331 18.1078 18.4366 18.4923 18.038L19.0425 17.5565C20.0545 16.6737 19.4258 15.7749 18.3952 14.8888L17.7758 14.3539Z" fill="#161925"/>
</svg>
