<svg width="12" height="12" viewBox="0 0 12 12" fill="none" xmlns="http://www.w3.org/2000/svg">
<path d="M10.875 4.00004C10.875 4.20504 10.705 4.37504 10.5 4.37504H1.5C1.295 4.37504 1.125 4.20504 1.125 4.00004C1.125 3.79504 1.295 3.62504 1.5 3.62504H2.01L2.2 2.72004C2.38 1.84504 2.755 1.04004 4.245 1.04004H7.755C9.245 1.04004 9.62 1.84504 9.8 2.72004L9.99 3.62504H10.5C10.705 3.62504 10.875 3.79504 10.875 4.00004Z" fill="#6200EE"/>
<path d="M11.09 6.83C11.015 6.005 10.795 5.125 9.19004 5.125H2.81004C1.20504 5.125 0.990043 6.005 0.910043 6.83L0.630043 9.875C0.595043 10.255 0.720043 10.635 0.980043 10.92C1.24504 11.21 1.62004 11.375 2.02004 11.375H2.96004C3.77004 11.375 3.92504 10.91 4.02504 10.605L4.12504 10.305C4.24004 9.96 4.27004 9.875 4.72004 9.875H7.28004C7.73004 9.875 7.74504 9.925 7.87504 10.305L7.97504 10.605C8.07504 10.91 8.23004 11.375 9.04004 11.375H9.98004C10.375 11.375 10.755 11.21 11.02 10.92C11.28 10.635 11.405 10.255 11.37 9.875L11.09 6.83ZM4.50004 7.875H3.00004C2.79504 7.875 2.62504 7.705 2.62504 7.5C2.62504 7.295 2.79504 7.125 3.00004 7.125H4.50004C4.70504 7.125 4.87504 7.295 4.87504 7.5C4.87504 7.705 4.70504 7.875 4.50004 7.875ZM9.00004 7.875H7.50004C7.29504 7.875 7.12504 7.705 7.12504 7.5C7.12504 7.295 7.29504 7.125 7.50004 7.125H9.00004C9.20504 7.125 9.37504 7.295 9.37504 7.5C9.37504 7.705 9.20504 7.875 9.00004 7.875Z" fill="#6200EE"/>
</svg>
