<svg width="40" height="40" viewBox="0 0 40 40" fill="none" xmlns="http://www.w3.org/2000/svg">
<g clip-path="url(#clip0_13_60)">
<path d="M20 39.5C30.7696 39.5 39.5 30.7696 39.5 20C39.5 9.23045 30.7696 0.5 20 0.5C9.23045 0.5 0.5 9.23045 0.5 20C0.5 30.7696 9.23045 39.5 20 39.5Z" stroke="white" stroke-dasharray="2 2"/>
<path d="M20 36C28.8366 36 36 28.8366 36 20C36 11.1634 28.8366 4 20 4C11.1634 4 4 11.1634 4 20C4 28.8366 11.1634 36 20 36Z" fill="white"/>
<mask id="mask0_13_60" style="mask-type:luminance" maskUnits="userSpaceOnUse" x="10" y="10" width="20" height="20">
<path d="M30 10H10V30H30V10Z" fill="white"/>
</mask>
<g mask="url(#mask0_13_60)">
<path d="M20 29.6C14.7066 29.6 10.4 25.2934 10.4 20C10.4 14.7066 14.7066 10.4 20 10.4C25.2934 10.4 29.6 14.7066 29.6 20C29.6 25.2934 25.2934 29.6 20 29.6ZM20 11.6C15.3682 11.6 11.6 15.3682 11.6 20C11.6 24.6318 15.3682 28.4 20 28.4C24.6318 28.4 28.4 24.6318 28.4 20C28.4 15.3682 24.6318 11.6 20 11.6ZM24.4684 24.1368C24.7648 23.9886 24.885 23.6282 24.7368 23.3318C24.6808 23.22 23.3326 20.6 20 20.6C16.6674 20.6 15.3192 23.22 15.2632 23.3316C15.1156 23.627 15.235 23.985 15.5296 24.134C15.825 24.2826 16.1846 24.1648 16.3352 23.871C16.3786 23.7864 17.426 21.8 20 21.8C22.574 21.8 23.6214 23.7864 23.6632 23.8684C23.7684 24.0788 23.9802 24.2004 24.2006 24.2C24.2906 24.2 24.3822 24.1798 24.4684 24.1368ZM23 18.8C22.3382 18.8 21.8 18.2618 21.8 17.6C21.8 16.9382 22.3382 16.4 23 16.4C23.6618 16.4 24.2 16.9382 24.2 17.6C24.2 18.2618 23.6618 18.8 23 18.8ZM17 18.8C16.3382 18.8 15.8 18.2618 15.8 17.6C15.8 16.9382 16.3382 16.4 17 16.4C17.6618 16.4 18.2 16.9382 18.2 17.6C18.2 18.2618 17.6618 18.8 17 18.8Z" fill="#161925"/>
</g>
</g>
<defs>
<clipPath id="clip0_13_60">
<rect width="40" height="40" fill="white"/>
</clipPath>
</defs>
</svg>
