<svg width="14" height="14" viewBox="0 0 14 14" fill="none" xmlns="http://www.w3.org/2000/svg">
<path d="M11.6665 2.7998H2.33328C1.82004 2.7998 1.3999 3.21994 1.3999 3.73318V10.2664C1.3999 10.7797 1.82004 11.1998 2.33328 11.1998H11.6665C12.1798 11.1998 12.5999 10.7797 12.5999 10.2664V3.73318C12.5999 3.21994 12.1798 2.7998 11.6665 2.7998ZM4.66652 4.66642C5.18256 4.66642 5.5999 5.08432 5.5999 5.5998C5.5999 6.11528 5.18256 6.53318 4.66652 6.53318C4.15062 6.53318 3.73328 6.11528 3.73328 5.5998C3.73328 5.08432 4.15062 4.66642 4.66652 4.66642ZM6.53328 9.33318H2.7999V8.40022C2.7999 7.88474 3.21822 7.46698 3.73328 7.46698L5.5999 7.46642C6.1158 7.46642 6.53328 7.88432 6.53328 8.3998V9.33318ZM11.1999 9.33318H7.46652V8.3998H11.1999V9.33318ZM11.1999 7.46642H7.46652V6.53318H11.1999V7.46642ZM11.1999 5.5998H6.53328V4.66642H11.1999V5.5998Z" fill="#6200EE"/>
</svg>
