<svg width="22" height="22" viewBox="0 0 22 22" fill="none" xmlns="http://www.w3.org/2000/svg">
<path d="M15.5835 1.8335H6.41683C3.88683 1.8335 1.8335 3.87766 1.8335 6.3985V11.8802V12.7968C1.8335 15.3177 3.88683 17.3618 6.41683 17.3618H7.79183C8.03933 17.3618 8.36933 17.5268 8.52516 17.7285L9.90016 19.5527C10.5052 20.3593 11.4952 20.3593 12.1002 19.5527L13.4752 17.7285C13.6493 17.4993 13.9243 17.3618 14.2085 17.3618H15.5835C18.1135 17.3618 20.1668 15.3177 20.1668 12.7968V6.3985C20.1668 3.87766 18.1135 1.8335 15.5835 1.8335ZM11.9168 12.6043H6.41683C6.041 12.6043 5.72933 12.2927 5.72933 11.9168C5.72933 11.541 6.041 11.2293 6.41683 11.2293H11.9168C12.2927 11.2293 12.6043 11.541 12.6043 11.9168C12.6043 12.2927 12.2927 12.6043 11.9168 12.6043ZM15.5835 8.021H6.41683C6.041 8.021 5.72933 7.70933 5.72933 7.3335C5.72933 6.95766 6.041 6.646 6.41683 6.646H15.5835C15.9593 6.646 16.271 6.95766 16.271 7.3335C16.271 7.70933 15.9593 8.021 15.5835 8.021Z" fill="#161925"/>
</svg>
