<svg width="14" height="14" viewBox="0 0 14 14" fill="none" xmlns="http://www.w3.org/2000/svg">
<path d="M9.33341 2.47949C9.33341 3.20283 8.74425 3.79199 8.02091 3.79199H5.97925C5.61758 3.79199 5.29091 3.64616 5.05175 3.40699C4.81258 3.16783 4.66675 2.84116 4.66675 2.47949C4.66675 1.75616 5.25591 1.16699 5.97925 1.16699H8.02091C8.38258 1.16699 8.70925 1.31283 8.94841 1.55199C9.18758 1.79116 9.33341 2.11783 9.33341 2.47949Z" fill="#6200EE"/>
<path d="M10.9841 2.93408C10.8499 2.82325 10.6983 2.73575 10.5349 2.67158C10.3658 2.60742 10.1966 2.74158 10.1616 2.91658C9.96325 3.91408 9.08242 4.66658 8.02075 4.66658H5.97909C5.39575 4.66658 4.84742 4.43908 4.43325 4.02492C4.12992 3.72158 3.91992 3.33658 3.83825 2.92242C3.80325 2.74742 3.62825 2.60742 3.45909 2.67742C2.78242 2.95158 2.33325 3.56992 2.33325 4.81242V10.4999C2.33325 12.2499 3.37742 12.8333 4.66659 12.8333H9.33325C10.6224 12.8333 11.6666 12.2499 11.6666 10.4999V4.81242C11.6666 3.86158 11.4041 3.27825 10.9841 2.93408ZM4.66659 7.14575H6.99992C7.23909 7.14575 7.43742 7.34408 7.43742 7.58325C7.43742 7.82242 7.23909 8.02075 6.99992 8.02075H4.66659C4.42742 8.02075 4.22909 7.82242 4.22909 7.58325C4.22909 7.34408 4.42742 7.14575 4.66659 7.14575ZM9.33325 10.3541H4.66659C4.42742 10.3541 4.22909 10.1558 4.22909 9.91658C4.22909 9.67742 4.42742 9.47908 4.66659 9.47908H9.33325C9.57242 9.47908 9.77075 9.67742 9.77075 9.91658C9.77075 10.1558 9.57242 10.3541 9.33325 10.3541Z" fill="#6200EE"/>
</svg>
