<svg width="57" height="24" viewBox="0 0 57 24" fill="none" xmlns="http://www.w3.org/2000/svg">
<rect opacity="0.1" width="57" height="24" rx="6" fill="#EE0000"/>
<path d="M8.58545 16V8.29785H11.5771C12.2432 8.29785 12.8 8.51986 13.2476 8.96387C13.6951 9.40788 13.9189 9.95573 13.9189 10.6074C13.9189 11.252 13.6934 11.798 13.2422 12.2456C12.7946 12.6896 12.2396 12.9116 11.5771 12.9116H9.74023V16H8.58545ZM11.4858 9.31299H9.74023V11.918H11.4858C11.8582 11.918 12.1626 11.7944 12.3989 11.5474C12.6353 11.3003 12.7534 10.9924 12.7534 10.6235C12.7534 10.2511 12.6353 9.93962 12.3989 9.68896C12.1626 9.43831 11.8582 9.31299 11.4858 9.31299ZM14.1177 13.1963C14.1177 12.6735 14.243 12.1901 14.4937 11.7461C14.7443 11.2985 15.0916 10.9422 15.5356 10.6772C15.9797 10.4123 16.4684 10.2798 17.002 10.2798C17.8076 10.2798 18.4754 10.5573 19.0054 11.1123C19.5389 11.6637 19.8057 12.3584 19.8057 13.1963V13.5562H15.2402C15.319 14.0181 15.5303 14.3994 15.874 14.7002C16.2214 15.001 16.6296 15.1514 17.0986 15.1514C17.7682 15.1514 18.3089 14.8774 18.7207 14.3296L19.521 14.9204C19.2345 15.3 18.8836 15.5954 18.4683 15.8066C18.0565 16.0179 17.5999 16.1235 17.0986 16.1235C16.5472 16.1235 16.0423 15.9964 15.584 15.7422C15.1292 15.488 14.7712 15.137 14.5098 14.6895C14.2484 14.2419 14.1177 13.7441 14.1177 13.1963ZM18.0708 11.644C17.7593 11.3791 17.3958 11.2466 16.9805 11.2466C16.5651 11.2466 16.1999 11.3791 15.8848 11.644C15.5697 11.9054 15.362 12.251 15.2617 12.6807H18.6831C18.59 12.251 18.3859 11.9054 18.0708 11.644ZM25.5957 12.4121V16H24.4839V12.6323C24.4839 12.2241 24.3621 11.8947 24.1187 11.644C23.8752 11.3934 23.5565 11.2681 23.1626 11.2681C22.758 11.2681 22.4268 11.397 22.1689 11.6548C21.9147 11.9126 21.7876 12.2492 21.7876 12.6646V16H20.6758V10.3926H21.7876V11.0049C22.2101 10.5143 22.7598 10.269 23.4365 10.269C24.0703 10.269 24.5877 10.4749 24.9888 10.8867C25.3934 11.2949 25.5957 11.8034 25.5957 12.4121ZM32.5137 16H31.4126V15.2964C31.1548 15.5578 30.854 15.7637 30.5103 15.9141C30.1665 16.0609 29.8031 16.1343 29.4199 16.1343C29.0117 16.1343 28.625 16.0573 28.2598 15.9033C27.8945 15.7493 27.5794 15.5417 27.3145 15.2803C27.0531 15.0189 26.8454 14.7074 26.6914 14.3457C26.5374 13.984 26.4604 13.6045 26.4604 13.207C26.4604 12.806 26.5374 12.4246 26.6914 12.063C26.849 11.7013 27.0584 11.3898 27.3198 11.1284C27.5848 10.8634 27.8999 10.654 28.2651 10.5C28.6304 10.346 29.0153 10.269 29.4199 10.269C29.7995 10.269 30.1611 10.3424 30.5049 10.4893C30.8486 10.6325 31.1476 10.8348 31.4019 11.0962V8.29785H32.5137V16ZM31.4233 13.207C31.4233 12.6628 31.2354 12.2026 30.8594 11.8267C30.487 11.4471 30.034 11.2573 29.5005 11.2573C28.9634 11.2573 28.5068 11.4471 28.1309 11.8267C27.7585 12.2026 27.5723 12.6628 27.5723 13.207C27.5723 13.7477 27.7603 14.2078 28.1362 14.5874C28.5122 14.9634 28.967 15.1514 29.5005 15.1514C30.034 15.1514 30.487 14.9634 30.8594 14.5874C31.2354 14.2078 31.4233 13.7477 31.4233 13.207ZM34.1519 9.6084C33.9621 9.6084 33.8027 9.54395 33.6738 9.41504C33.5449 9.28613 33.4805 9.12679 33.4805 8.93701C33.4805 8.75439 33.5449 8.59863 33.6738 8.46973C33.8063 8.34082 33.9657 8.27637 34.1519 8.27637C34.3345 8.27637 34.4884 8.34082 34.6138 8.46973C34.7391 8.59863 34.8018 8.75439 34.8018 8.93701C34.8018 9.12679 34.7391 9.28613 34.6138 9.41504C34.4884 9.54395 34.3345 9.6084 34.1519 9.6084ZM34.6997 10.3926V16H33.5879V10.3926H34.6997ZM40.6992 12.4121V16H39.5874V12.6323C39.5874 12.2241 39.4657 11.8947 39.2222 11.644C38.9787 11.3934 38.66 11.2681 38.2661 11.2681C37.8615 11.2681 37.5303 11.397 37.2725 11.6548C37.0182 11.9126 36.8911 12.2492 36.8911 12.6646V16H35.7793V10.3926H36.8911V11.0049C37.3136 10.5143 37.8633 10.269 38.54 10.269C39.1738 10.269 39.6912 10.4749 40.0923 10.8867C40.4969 11.2949 40.6992 11.8034 40.6992 12.4121ZM47.5527 10.3926V16.1772C47.5527 16.8039 47.3647 17.2998 46.9888 17.665C46.6164 18.0303 46.1097 18.2129 45.4688 18.2129H44.0615V17.2676H45.2271C46.0291 17.2676 46.4302 16.8737 46.4302 16.0859V15.2642C45.8931 15.7905 45.2432 16.0537 44.4805 16.0537C43.9469 16.0537 43.4564 15.9266 43.0088 15.6724C42.5612 15.4146 42.2085 15.0636 41.9507 14.6196C41.6929 14.1756 41.564 13.6868 41.564 13.1533C41.564 12.627 41.6929 12.1436 41.9507 11.7031C42.2121 11.2591 42.5666 10.91 43.0142 10.6558C43.4618 10.3979 43.9505 10.269 44.4805 10.269C45.2432 10.269 45.8966 10.5412 46.4409 11.0854V10.3926H47.5527ZM42.665 13.1533C42.665 13.6904 42.8477 14.1452 43.2129 14.5176C43.5817 14.89 44.0293 15.0762 44.5557 15.0762C45.0856 15.0762 45.5332 14.89 45.8984 14.5176C46.2673 14.1416 46.4517 13.6868 46.4517 13.1533C46.4517 12.6234 46.2655 12.174 45.8931 11.8052C45.5243 11.4328 45.0785 11.2466 44.5557 11.2466C44.0329 11.2466 43.5871 11.4328 43.2183 11.8052C42.8494 12.1776 42.665 12.627 42.665 13.1533Z" fill="#EE0000"/>
</svg>
