<svg width="14" height="14" viewBox="0 0 14 14" fill="none" xmlns="http://www.w3.org/2000/svg">
<path d="M7.00008 1.1665C5.47175 1.1665 4.22925 2.409 4.22925 3.93734C4.22925 5.4365 5.40175 6.64984 6.93008 6.70234C6.97675 6.6965 7.02341 6.6965 7.05841 6.70234C7.07008 6.70234 7.07591 6.70234 7.08758 6.70234C7.09341 6.70234 7.09341 6.70234 7.09925 6.70234C8.59258 6.64984 9.76508 5.4365 9.77091 3.93734C9.77091 2.409 8.52841 1.1665 7.00008 1.1665Z" fill="#6200EE"/>
<path d="M9.96331 8.25418C8.33581 7.16918 5.68164 7.16918 4.04248 8.25418C3.30164 8.75001 2.89331 9.42085 2.89331 10.1383C2.89331 10.8558 3.30164 11.5208 4.03664 12.0108C4.85331 12.5592 5.92664 12.8333 6.99998 12.8333C8.07331 12.8333 9.14664 12.5592 9.96331 12.0108C10.6983 11.515 11.1066 10.85 11.1066 10.1267C11.1008 9.40918 10.6983 8.74418 9.96331 8.25418Z" fill="#6200EE"/>
</svg>
