<svg width="40" height="40" viewBox="0 0 40 40" fill="none" xmlns="http://www.w3.org/2000/svg">
<path d="M20 20.5613L18.7927 21.8317V37.4247C18.7927 38.2553 19.0434 39.0601 19.503 39.7378C19.7399 40.0873 20.26 40.0873 20.497 39.7378C20.9566 39.0601 21.2073 38.2553 21.2073 37.4247V21.8317L20 20.5613Z" fill="#161925"/>
<path d="M20 5V24C24.9705 24 29 19.7467 29 14.5C29 9.25333 24.9705 5 20 5Z" fill="#161925"/>
<path d="M27 14.5C27 9.25333 23.9251 5 20.1321 5C15.0886 5 11 9.25333 11 14.5C11 19.7467 15.0886 24 20.1321 24C23.9251 24 27 19.7467 27 14.5Z" fill="#2C2C2C"/>
</svg>
