<svg width="14" height="14" viewBox="0 0 14 14" fill="none" xmlns="http://www.w3.org/2000/svg">
<g clip-path="url(#clip0_126_11159)">
<path d="M1.3125 3.5H2.1875C2.42932 3.5 2.625 3.30411 2.625 3.0625C2.625 2.91272 2.54502 2.78706 2.43026 2.70818C3.38464 2.12558 5.13502 1.75 7 1.75C10.2526 1.75 12.25 2.78287 12.25 3.52328C12.25 3.69205 12.1496 3.87085 11.9522 4.05457C11.7753 4.21906 11.7651 4.49591 11.9296 4.67279C12.0159 4.7655 12.1329 4.8125 12.25 4.8125C12.3568 4.8125 12.4636 4.77383 12.5478 4.69543C13.025 4.25195 13.125 3.81339 13.125 3.52328C13.125 1.80319 9.96936 0.875 7 0.875C4.77875 0.875 2.8077 1.34759 1.73665 2.12125C1.70356 1.91246 1.5308 1.75 1.3125 1.75C1.07068 1.75 0.875 1.94589 0.875 2.1875V3.0625C0.875 3.30411 1.07068 3.5 1.3125 3.5Z" fill="#6200EE"/>
<path d="M12.6875 10.5001H11.8125C11.5707 10.5001 11.375 10.696 11.375 10.9376C11.375 11.0874 11.455 11.213 11.5697 11.2919C10.6154 11.8745 8.86498 12.2501 7 12.2501C3.74738 12.2501 1.75 11.2172 1.75 10.4768C1.75 10.308 1.8504 10.1292 2.04779 9.94551C2.22467 9.78102 2.23492 9.50416 2.07043 9.32728C1.90552 9.14998 1.62866 9.14015 1.45221 9.30464C0.974976 9.74812 0.875 10.1867 0.875 10.4768C0.875 12.1969 4.03064 13.1251 7 13.1251C9.22125 13.1251 11.1924 12.6525 12.2634 11.8788C12.2965 12.0876 12.4692 12.2501 12.6875 12.2501C12.9293 12.2501 13.125 12.0542 13.125 11.8126V10.9376C13.125 10.696 12.9293 10.5001 12.6875 10.5001Z" fill="#6200EE"/>
<path d="M8.31248 2.625H5.68748C5.49907 2.625 5.33201 2.74548 5.27241 2.92407L5.08044 3.5H8.91952L8.72755 2.92407C8.66795 2.74548 8.5009 2.625 8.31248 2.625Z" fill="#6200EE"/>
<path d="M2.625 5.6875V9.1875C2.625 10.1524 3.41006 10.9375 4.375 10.9375H9.625C10.5899 10.9375 11.375 10.1524 11.375 9.1875V5.6875C11.375 4.72256 10.5899 3.9375 9.625 3.9375H4.375C3.41006 3.9375 2.625 4.72256 2.625 5.6875ZM9.40625 4.8125H10.2812C10.4022 4.8125 10.5 4.91034 10.5 5.03125C10.5 5.15216 10.4022 5.25 10.2812 5.25H9.40625C9.28534 5.25 9.1875 5.15216 9.1875 5.03125C9.1875 4.91034 9.28534 4.8125 9.40625 4.8125ZM7 4.8125C8.44751 4.8125 9.625 5.98999 9.625 7.4375C9.625 8.88501 8.44751 10.0625 7 10.0625C5.55249 10.0625 4.375 8.88501 4.375 7.4375C4.375 5.98999 5.55249 4.8125 7 4.8125Z" fill="#6200EE"/>
<path d="M7 9.625C8.20612 9.625 9.1875 8.64362 9.1875 7.4375C9.1875 6.23138 8.20612 5.25 7 5.25C5.79388 5.25 4.8125 6.23138 4.8125 7.4375C4.8125 8.64362 5.79388 9.625 7 9.625ZM7 8.3125C7.48257 8.3125 7.875 7.92007 7.875 7.4375C7.875 7.31659 7.97284 7.21875 8.09375 7.21875C8.21466 7.21875 8.3125 7.31659 8.3125 7.4375C8.3125 8.16125 7.72375 8.75 7 8.75C6.87909 8.75 6.78125 8.65216 6.78125 8.53125C6.78125 8.41034 6.87909 8.3125 7 8.3125Z" fill="#6200EE"/>
</g>
<defs>
<clipPath id="clip0_126_11159">
<rect width="14" height="14" fill="white"/>
</clipPath>
</defs>
</svg>
