<svg width="20" height="20" viewBox="0 0 20 20" fill="none" xmlns="http://www.w3.org/2000/svg">
<path d="M19.4218 0.583273C19.1758 0.331023 18.8654 0.15083 18.5244 0.0621756C18.1833 -0.0264785 17.8246 -0.0202204 17.4868 0.080273L1.39481 4.76127C1.04358 4.85737 0.726938 5.05141 0.481869 5.32074C0.236801 5.59007 0.0734192 5.92356 0.0108056 6.28227C-0.0292852 6.69016 0.0426469 7.10126 0.218856 7.4713C0.395066 7.84134 0.668877 8.1563 1.01081 8.38227L6.04681 11.4783C6.29733 11.6333 6.59307 11.6986 6.88558 11.6636C7.17809 11.6285 7.45002 11.4951 7.65681 11.2853L13.4198 5.48527C13.4883 5.41376 13.5706 5.35686 13.6617 5.31798C13.7528 5.27911 13.8508 5.25907 13.9498 5.25907C14.0488 5.25907 14.1468 5.27911 14.2379 5.31798C14.329 5.35686 14.4113 5.41376 14.4798 5.48527C14.6192 5.62785 14.6973 5.81935 14.6973 6.01877C14.6973 6.2182 14.6192 6.4097 14.4798 6.55227L8.70681 12.3523C8.4986 12.5619 8.36651 12.8352 8.33153 13.1285C8.29656 13.4219 8.36072 13.7186 8.51381 13.9713L11.5868 19.0553C11.7563 19.3453 11.9993 19.5854 12.2913 19.7515C12.5833 19.9176 12.9139 20.0037 13.2498 20.0013C13.3333 20.003 13.4167 19.9996 13.4998 19.9913C13.8777 19.9442 14.2335 19.7874 14.5234 19.5404C14.8132 19.2934 15.0244 18.9669 15.1308 18.6013L19.9028 2.52627C20.0043 2.18912 20.0133 1.83087 19.9289 1.48904C19.8444 1.14722 19.6696 0.834375 19.4228 0.583273" fill="#6200EE"/>
</svg>
