<svg width="22" height="22" viewBox="0 0 22 22" fill="none" xmlns="http://www.w3.org/2000/svg">
<path id="Vector" d="M15.6168 0H6.39419C2.38819 0 0 2.387 0 6.391V15.598C0 19.613 2.38819 22 6.39419 22H15.6058C19.6118 22 22 19.613 22 15.609V6.391C22.011 2.387 19.6228 0 15.6168 0ZM16.2661 8.47L10.026 14.707C9.87192 14.861 9.66282 14.949 9.44271 14.949C9.2226 14.949 9.01349 14.861 8.85942 14.707L5.74486 11.594C5.4257 11.275 5.4257 10.747 5.74486 10.428C6.06402 10.109 6.59228 10.109 6.91144 10.428L9.44271 12.958L15.0995 7.304C15.4187 6.985 15.9469 6.985 16.2661 7.304C16.5853 7.623 16.5853 8.14 16.2661 8.47Z" fill="#6200EE"/>
</svg>
