<svg width="68" height="68" viewBox="0 0 68 68" fill="none" xmlns="http://www.w3.org/2000/svg">
<g id="driver 1" clip-path="url(#clip0_133_28187)">
<g id="Group">
<path id="Vector" d="M34.0001 0.493164C15.6346 0.493164 0.746582 15.3812 0.746582 33.7467C0.746582 40.6805 2.86883 47.1188 6.49917 52.4472L61.4835 52.473C65.1245 47.1395 67.2536 40.6917 67.2536 33.7467C67.2536 15.3812 52.3655 0.493164 34.0001 0.493164Z" fill="#6200EE"/>
<path id="Vector_2" d="M54.9869 47.4161C54.9073 47.3961 45.5414 45.3218 45.5414 45.3218C45.5414 45.3218 39.0887 45.7319 31.9282 46.1889C22.8853 46.7661 17.3171 56.3314 21.2807 64.4799C23.6419 65.4583 26.1401 66.1725 28.7387 66.5857L39.1197 66.608C41.7206 66.2059 44.222 65.5026 46.5869 64.5346L53.334 60.8035C56.5137 58.5271 59.2756 55.7039 61.4823 52.4715C60.1343 50.017 57.8338 48.1329 54.9869 47.4161Z" fill="#C8EFFE"/>
<path id="Vector_3" d="M27.5888 44.165C21.4437 45.5297 13.0447 47.3952 12.9779 47.4122C10.1415 48.1283 7.84846 50.0033 6.5 52.4464C8.59999 55.5286 11.2045 58.2397 14.1949 60.4603L21.1454 60.4276V57.5762C21.1454 54.0493 24.9659 53.4924 27.5887 53.2246L27.5888 44.165Z" fill="#62DBFB"/>
<g id="Group_2">
<path id="Vector_4" d="M50.0944 20.2953V13.195C50.0944 5.35535 43.739 -1 35.8994 -1H32.1438C24.0287 -1 17.4502 5.57849 17.4502 13.6936V20.2951L50.0944 20.2953Z" fill="#433F43"/>
</g>
<g id="Group_3">
<g id="Group_4">
<g id="Group_5">
<g id="Group_6">
<g id="Group_7">
<g id="Group_8">
<path id="Vector_5" d="M33.8431 50.2459C31.0664 50.2459 28.8154 47.995 28.8154 45.2183V33.957H38.8707V45.2183C38.8707 47.995 36.6197 50.2459 33.8431 50.2459Z" fill="#EFC1A8"/>
</g>
</g>
</g>
</g>
</g>
<g id="Group_9">
<g id="Group_10">
<g id="Group_11">
<g id="Group_12">
<g id="Group_13">
<path id="Vector_6" d="M48.1168 26.2025H47.2292V17.7183H48.1168C49.9651 17.7183 51.4634 19.2166 51.4634 21.0649V22.8557C51.4634 24.7042 49.9651 26.2025 48.1168 26.2025Z" fill="#EFC1A8"/>
</g>
</g>
</g>
</g>
</g>
<g id="Group_14">
<g id="Group_15">
<g id="Group_16">
<g id="Group_17">
<g id="Group_18">
<path id="Vector_7" d="M48.1167 23.4414V20.4795C48.762 20.4795 49.2851 21.0026 49.2851 21.6478V22.273C49.2851 22.9183 48.762 23.4414 48.1167 23.4414Z" fill="#EFC1A8"/>
</g>
</g>
</g>
</g>
</g>
<g id="Group_19">
<g id="Group_20">
<g id="Group_21">
<g id="Group_22">
<g id="Group_23">
<path id="Vector_8" d="M16.0813 22.8559C16.0813 24.7042 17.5796 26.2025 19.428 26.2025H20.2028L20.4394 17.7183H19.428C17.5796 17.7183 16.0813 19.2166 16.0813 21.0649V22.8559Z" fill="#EFC1A8"/>
</g>
</g>
</g>
</g>
</g>
<g id="Group_24">
<g id="Group_25">
<g id="Group_26">
<g id="Group_27">
<g id="Group_28">
<path id="Vector_9" d="M18.2554 22.274C18.2554 22.9216 18.7804 23.4466 19.4279 23.4466V20.4741C18.7804 20.4741 18.2554 20.9991 18.2554 21.6467V22.274Z" fill="#EFC1A8"/>
</g>
</g>
</g>
</g>
</g>
<g id="Group_29">
<g id="Group_30">
<path id="Vector_10" d="M22.9766 8.82861L23.0246 31.9044C23.197 37.6548 27.9905 42.1935 33.7432 42.2462L35.7208 42.2643C42.7165 41.345 48.1168 35.36 48.1168 28.1133L48.1778 24.4108L44.7807 8.82861H22.9766Z" fill="#F9D6BF"/>
</g>
</g>
<g id="Group_31">
<g id="Group_32">
<g id="Group_33">
<g id="Group_34">
<g id="Group_35">
<path id="Vector_11" d="M27.6758 22.7798V23.7863C27.6758 24.4429 28.2081 24.9752 28.8646 24.9752C29.5211 24.9752 30.0535 24.4429 30.0535 23.7863V22.7798H27.6758Z" fill="#EFC1A8"/>
</g>
</g>
</g>
</g>
</g>
<g id="Group_36">
<g id="Group_37">
<g id="Group_38">
<g id="Group_39">
<g id="Group_40">
<path id="Vector_12" d="M37.3623 22.7798V23.7863C37.3623 24.4429 37.8946 24.9752 38.5512 24.9752C39.2077 24.9752 39.74 24.4429 39.74 23.7863V22.7798H37.3623Z" fill="#EFC1A8"/>
</g>
</g>
</g>
</g>
</g>
<g id="Group_41">
<g id="Group_42">
<g id="Group_43">
<g id="Group_44">
<g id="Group_45">
<path id="Vector_13" d="M28.8646 24.0226C28.2081 24.0226 27.6758 23.4903 27.6758 22.8338V21.3045L28.114 20.6409L27.6758 19.9774V19.5824C27.6758 18.9259 28.2081 18.3936 28.8646 18.3936C29.5211 18.3936 30.0535 18.9259 30.0535 19.5824V22.8338C30.0535 23.4903 29.5211 24.0226 28.8646 24.0226Z" fill="#433F43"/>
</g>
</g>
</g>
</g>
</g>
<g id="Group_46">
<g id="Group_47">
<g id="Group_48">
<g id="Group_49">
<g id="Group_50">
<path id="Vector_14" d="M38.5512 24.0226C37.8946 24.0226 37.3623 23.4903 37.3623 22.8338V21.3045L37.8006 20.6409L37.3623 19.9774V19.5824C37.3623 18.9259 37.8946 18.3936 38.5512 18.3936C39.2077 18.3936 39.74 18.9259 39.74 19.5824V22.8338C39.74 23.4903 39.2077 24.0226 38.5512 24.0226Z" fill="#433F43"/>
</g>
</g>
</g>
</g>
</g>
<g id="Group_51">
<g id="Group_52">
<g id="Group_53">
<g id="Group_54">
<g id="Group_55">
<g id="Group_56">
<path id="Vector_15" d="M30.4309 17.1028H26.964C26.3075 17.1028 25.7751 16.5706 25.7751 15.9139C25.7751 15.2574 26.3075 14.7251 26.964 14.7251H30.4309C31.0874 14.7251 31.6198 15.2574 31.6198 15.9139C31.6198 16.5705 31.0876 17.1028 30.4309 17.1028Z" fill="#433F43"/>
</g>
</g>
</g>
</g>
</g>
</g>
<g id="Group_57">
<g id="Group_58">
<g id="Group_59">
<g id="Group_60">
<g id="Group_61">
<g id="Group_62">
<path id="Vector_16" d="M40.3376 17.1028H36.8707C36.2142 17.1028 35.6819 16.5706 35.6819 15.9139C35.6819 15.2574 36.2142 14.7251 36.8707 14.7251H40.3376C40.9942 14.7251 41.5265 15.2574 41.5265 15.9139C41.5265 16.5705 40.9943 17.1028 40.3376 17.1028Z" fill="#433F43"/>
</g>
</g>
</g>
</g>
</g>
</g>
<g id="Group_63">
<g id="Group_64">
<g id="Group_65">
<g id="Group_66">
<g id="Group_67">
<path id="Vector_17" d="M31.9169 25.7102C31.6214 26.8904 32.1585 28.1758 33.1855 28.5633C33.3922 28.6413 33.6133 28.6836 33.8431 28.6836C34.0729 28.6836 34.294 28.6414 34.5007 28.5633C35.5278 28.1758 36.065 26.8904 35.7694 25.7102L34.7897 21.7978C34.5431 20.8128 33.1433 20.8128 32.8967 21.7978L31.9169 25.7102Z" fill="#EFC1A8"/>
</g>
</g>
</g>
</g>
</g>
<g id="Group_68">
<g id="Group_69">
<g id="Group_70">
<path id="Vector_18" d="M28.114 21.7429C27.872 21.7429 27.6758 21.5466 27.6758 21.3046V19.9773C27.6758 19.7353 27.872 19.5391 28.114 19.5391C28.3561 19.5391 28.5523 19.7353 28.5523 19.9773V21.3046C28.5522 21.5466 28.3561 21.7429 28.114 21.7429Z" fill="white"/>
</g>
</g>
</g>
<g id="Group_71">
<g id="Group_72">
<g id="Group_73">
<path id="Vector_19" d="M37.8006 21.7429C37.5586 21.7429 37.3623 21.5466 37.3623 21.3046V19.9773C37.3623 19.7353 37.5586 19.5391 37.8006 19.5391C38.0426 19.5391 38.2388 19.7353 38.2388 19.9773V21.3046C38.2388 21.5466 38.0426 21.7429 37.8006 21.7429Z" fill="white"/>
</g>
</g>
</g>
</g>
<g id="Group_74">
<path id="Vector_20" d="M47.0326 8.51611H21.0289L19.4277 23.4463V27.972C19.4277 35.8979 25.8167 42.3009 33.6794 42.3849C33.6967 42.3851 33.7138 42.3865 33.7314 42.3866C33.7684 42.3869 33.8056 42.387 33.8428 42.387C34.0986 42.387 34.3527 42.38 34.6053 42.3667C34.609 42.3665 34.6128 42.3664 34.6164 42.3663C34.6162 42.3661 34.616 42.3661 34.6158 42.366C34.9881 42.3461 35.3563 42.3114 35.7205 42.2635C28.6662 41.3442 24.0754 35.3114 24.0754 27.972V12.4753C24.0754 11.3894 24.783 10.4106 25.8303 10.1233L25.8501 10.1178C26.6455 11.1623 27.9014 11.8367 29.3153 11.8367H39.596C41.0126 11.8367 42.3707 11.5875 43.6303 11.1323C44.5872 11.9836 45.1906 13.2237 45.1906 14.6053V21.4239C45.1906 23.0734 46.5278 24.4107 48.1773 24.4107V23.441L47.0326 8.51611Z" fill="#F9D6BF"/>
</g>
<g id="Group_75">
<path id="Vector_21" d="M25.5533 5.54834C22.1703 5.54834 19.4277 8.29087 19.4277 11.6739V23.4409C21.0772 23.4409 22.4144 22.1037 22.4144 20.4542V13.6356C22.4144 11.0686 24.4954 8.98743 27.0626 8.98743H40.5428C43.1098 8.98743 45.1909 11.0684 45.1909 13.6356V20.4543C45.1909 22.1038 46.5281 23.441 48.1776 23.441V11.6739C48.1776 8.29087 45.4351 5.54834 42.0521 5.54834H25.5533Z" fill="#433F43"/>
</g>
<g id="Group_76">
<path id="Vector_22" d="M32.4754 -1C28.3259 -1 24.9622 2.36376 24.9622 6.51325C24.9622 8.91768 26.9114 10.8669 29.3158 10.8669H39.5965C45.2362 10.8669 49.9571 6.93279 51.1644 1.65919C51.4765 0.296072 50.4236 -1 49.0252 -1H32.4754Z" fill="#554E56"/>
</g>
<g id="Group_77">
<g id="Group_78">
<g id="Group_79">
<g id="Group_80">
<g id="Group_81">
<path id="Vector_23" d="M38.4862 29.8457H37.2317L33.9277 30.5317L30.6236 29.8457H29.5138C29.1415 29.8457 28.8439 30.1706 28.8936 30.5397C28.9886 31.2456 29.2266 31.9062 29.5774 32.4913L36.2676 34.4739C37.7785 33.7323 38.8732 32.2725 39.1064 30.5397C39.1561 30.1706 38.8585 29.8457 38.4862 29.8457Z" fill="#E41E7F"/>
</g>
</g>
</g>
</g>
<g id="Group_82">
<g id="Group_83">
<g id="Group_84">
<g id="Group_85">
<path id="Vector_24" d="M29.5779 32.491C30.4783 33.9929 32.1214 34.9985 33.9999 34.9985C34.8136 34.9985 35.5829 34.8092 36.2673 34.4734C35.9731 32.6281 34.3749 31.2178 32.4469 31.2178C31.309 31.2178 30.2858 31.7091 29.5779 32.491Z" fill="#FE646F"/>
</g>
</g>
</g>
</g>
<g id="Group_86">
<g id="Group_87">
<g id="Group_88">
<g id="Group_89">
<path id="Vector_25" d="M36.3395 31.2176H31.5158C31.023 31.2176 30.6235 30.8182 30.6235 30.3254V29.8457H37.2318V30.3254C37.2318 30.8182 36.8323 31.2176 36.3395 31.2176Z" fill="white"/>
</g>
</g>
</g>
</g>
</g>
<g id="Group_90">
<path id="Vector_26" d="M33.843 52.5813V50.2457L43.7011 44.9146L45.5415 45.3221L40.2529 56.885C39.9241 57.6039 38.9776 57.7717 38.4217 57.2098L33.843 52.5813Z" fill="#62DBFB"/>
</g>
<g id="Group_91">
<path id="Vector_27" d="M33.843 50.2458L38.8707 41.4761L43.7011 44.9146L38.6044 55.2246L33.843 50.2458Z" fill="white"/>
</g>
<g id="Group_92">
<path id="Vector_28" d="M33.8428 52.5812V50.2456L28.5985 45.9028L23.7681 48.0628L28.1079 56.8416C28.4667 57.5676 29.4502 57.6915 29.9781 57.0775L33.8428 52.5812Z" fill="#62DBFB"/>
</g>
<g id="Group_93">
<path id="Vector_29" d="M33.7443 50.2454L28.8056 41.481L23.8862 44.9142L28.983 55.2242L33.7443 50.2454Z" fill="#C8EFFE"/>
</g>
<path id="Vector_30" d="M33.9277 49.6494C25.9182 49.6494 19.1339 54.9906 16.9465 62.2978C18.3295 63.1256 19.7776 63.8556 21.2813 64.4787C22.5996 58.7139 27.7691 54.3999 33.9278 54.3999C40.1056 54.3999 45.2879 58.7412 46.5861 64.533C47.1677 64.2949 47.741 64.041 48.3055 63.7716L50.4225 60.8919C47.8299 54.3156 41.4139 49.6494 33.9277 49.6494Z" fill="#554E56"/>
<path id="Vector_31" d="M34.0001 66.9998C35.7411 66.9998 37.4507 66.8654 39.1195 66.6075C38.7494 64.0716 36.5663 62.124 33.9278 62.124C31.2972 62.124 29.1191 64.0595 28.739 66.5841C30.4529 66.8565 32.2096 66.9998 34.0001 66.9998Z" fill="#433F43"/>
<path id="Vector_32" d="M33.9278 49.6494C26.1986 49.6494 19.6102 54.6235 17.1929 61.5384L19.6528 63.752C20.1879 64.0083 20.7309 64.2507 21.2813 64.4787C22.5996 58.7139 27.7691 54.3999 33.9278 54.3999C35.2396 54.3999 36.303 53.3365 36.303 52.0247C36.303 50.7128 35.2396 49.6494 33.9278 49.6494Z" fill="#433F43"/>
<g id="Group_94">
<path id="Vector_33" d="M35.6244 64.5148V53.6683C35.6244 52.7314 34.8647 51.9717 33.9278 51.9717C32.9909 51.9717 32.2312 52.7314 32.2312 53.6683V64.5148H35.6244Z" fill="#433F43"/>
</g>
<path id="Vector_34" d="M52.2695 60.4272H48.7008C47.7637 60.4272 47.0042 61.1869 47.0042 62.1239C47.0042 62.9247 47.5597 63.5942 48.3058 63.7724C50.0735 62.9286 51.7551 61.9336 53.3337 60.8036C53.0426 60.5685 52.6727 60.4272 52.2695 60.4272Z" fill="#EFC1A8"/>
<g id="Group_95">
<path id="Vector_35" d="M23.3296 57.6136C22.9197 57.6136 22.5087 57.4659 22.183 57.1671L19.5536 54.7542C18.8633 54.1206 18.8172 53.0474 19.4507 52.3571C20.0843 51.6667 21.1575 51.6208 21.848 52.2541L24.4773 54.6669C25.1676 55.3005 25.2138 56.3737 24.5802 57.064C24.2455 57.4286 23.7884 57.6136 23.3296 57.6136Z" fill="#EFC1A8"/>
</g>
<g id="Group_96">
<path id="Vector_36" d="M20.961 59.9486C20.5511 59.9486 20.1403 59.801 19.8144 59.502L17.185 57.0893C16.4946 56.4557 16.4486 55.3825 17.082 54.6922C17.7155 54.0016 18.7888 53.9556 19.4791 54.5892L22.1085 57.0019C22.7989 57.6355 22.8449 58.7087 22.2115 59.399C21.8769 59.7637 21.4196 59.9486 20.961 59.9486Z" fill="#EFC1A8"/>
</g>
<g id="Group_97">
<path id="Vector_37" d="M19.3074 62.8729C18.8975 62.8729 18.4867 62.7253 18.1608 62.4263L15.5315 60.0136C14.841 59.38 14.795 58.3068 15.4285 57.6165C16.0619 56.926 17.1352 56.8799 17.8256 57.5135L20.4549 59.9262C21.1453 60.5598 21.1914 61.633 20.5579 62.3233C20.2233 62.6879 19.7661 62.8729 19.3074 62.8729Z" fill="#EFC1A8"/>
</g>
<path id="Vector_38" d="M14.1951 60.4602C15.8966 61.7237 17.7227 62.8288 19.6522 63.753C19.5823 63.4174 19.4119 63.0996 19.1401 62.8502L16.5107 60.4375C15.8488 59.83 14.8358 59.849 14.1951 60.4602Z" fill="#EFC1A8"/>
</g>
</g>
<defs>
<clipPath id="clip0_133_28187">
<rect width="68" height="68" fill="white"/>
</clipPath>
</defs>
</svg>
