<svg width="68" height="68" viewBox="0 0 68 68" fill="none" xmlns="http://www.w3.org/2000/svg">
<g id="food-delivery 1" clip-path="url(#clip0_133_28138)">
<path id="Vector" d="M34 0C52.7779 0 68 15.2221 68 34C68 52.7779 52.7779 68 34 68C26.8442 68 20.2051 65.7894 14.7277 62.0141C11.7326 59.9498 14.0812 54.7914 11.8867 51.8965C9.93085 49.317 3.33795 49.0758 2.17636 45.9951C0.769897 42.265 0 38.2225 0 34C0 15.2221 15.2221 0 34 0Z" fill="#6200EE"/>
<path id="Vector_2" d="M36.39 20.9517C36.9685 21.3024 37.6938 21.3024 38.2727 20.9517L40.7702 19.4373C41.3492 19.0866 42.0745 19.0866 42.653 19.4368L45.1515 20.9517C45.6003 21.2241 46.1372 21.2838 46.6254 21.1338V17.9645C46.6254 16.3126 45.8596 14.8408 44.6633 13.8836C44.1554 13.4769 43.8732 12.8517 43.8732 12.2017V9.93555H38.929V12.2017C38.929 12.8522 38.6463 13.4774 38.1384 13.8836C36.9425 14.8408 36.1763 16.3131 36.1763 17.9645V20.822L36.39 20.9517Z" fill="#75BDEF"/>
<path id="Vector_3" d="M39.6382 17.9645C39.6382 16.3126 40.1508 14.8408 40.9503 13.8836C41.2901 13.4769 41.4789 12.8517 41.4789 12.2017V9.93555H38.9285V12.2017C38.9285 12.8522 38.6463 13.4774 38.1384 13.8836C36.942 14.8408 36.1763 16.3131 36.1763 17.9645V20.822L36.39 20.9517C36.9685 21.3024 37.6938 21.3024 38.2727 20.9517L39.6382 20.1237V17.9645Z" fill="#4DADE2"/>
<path id="Vector_4" d="M55.7964 20.9522L58.2954 19.4368C58.8739 19.0861 59.5992 19.0861 60.1776 19.4368L62.6772 20.9522C62.7426 20.9916 62.81 21.0259 62.8785 21.0565V4.06998C62.878 1.82202 61.056 0 58.808 0C56.5601 0 54.738 1.82202 54.738 4.06998V21.2111C55.1028 21.2344 55.4727 21.1483 55.7964 20.9522Z" fill="#CE8A4D"/>
<path id="Vector_5" d="M47.0343 20.9517L49.5328 19.4368C50.1113 19.0861 50.8366 19.0861 51.415 19.4368L53.9141 20.9517C54.1771 21.111 54.4702 21.1971 54.766 21.2121V4.06998C54.766 1.82202 52.9439 0 50.696 0C48.448 0 46.6255 1.82202 46.6255 4.06998V21.1343C46.7671 21.0907 46.9041 21.0305 47.0343 20.9517Z" fill="#CE8A4D"/>
<path id="Vector_6" d="M58.8542 4.06998C58.8542 2.57324 59.6625 1.26639 60.8661 0.559265C60.2622 0.204407 59.5592 0 58.808 0C56.5601 0 54.738 1.82202 54.738 4.06998V21.2111C55.1028 21.235 55.4727 21.1483 55.7964 20.9522L58.2954 19.4368C58.4708 19.3304 58.6602 19.2568 58.8542 19.2153V4.06998Z" fill="#C17C44"/>
<path id="Vector_7" d="M50.7422 4.06998C50.7422 2.57324 51.5504 1.26639 52.7541 0.559265C52.1502 0.204407 51.4467 0 50.696 0C48.448 0 46.6255 1.82202 46.6255 4.06998V21.1343C46.7671 21.0907 46.9041 21.0305 47.0343 20.9522L49.5328 19.4368C49.9017 19.2132 50.3297 19.1328 50.7422 19.1945V4.06998Z" fill="#C17C44"/>
<path id="Vector_8" d="M29.5108 20.9518L32.0099 19.4369C32.5883 19.0862 33.3136 19.0862 33.8921 19.4374L36.1737 20.8205C36.1193 17.6647 35.1024 14.9571 33.6726 13.7529H30.357C28.8903 14.9882 27.8579 17.8063 27.8538 21.0675C28.3876 21.2973 29.0055 21.2584 29.5108 20.9518Z" fill="#FAB941"/>
<path id="Vector_9" d="M32.4369 13.7529H30.357C28.8898 14.9882 27.8579 17.8063 27.8533 21.0675C28.3871 21.2968 29.0055 21.2584 29.5108 20.9518L30.8473 20.1419C30.9609 17.2802 31.585 14.8699 32.4369 13.7529Z" fill="#F6A221"/>
<g id="Group">
<path id="Vector_10" d="M58.9128 8.0864C59.0752 8.61194 59.6324 8.9061 60.1584 8.74475L62.8785 7.90533V5.8208L59.5711 6.84076C59.0451 7.00314 58.7504 7.56085 58.9128 8.0864Z" fill="#DD9E5F"/>
<path id="Vector_11" d="M62.8785 13.8403L59.5711 14.8608C59.0451 15.0227 58.7504 15.5804 58.9128 16.1059C59.0446 16.5339 59.4389 16.8089 59.8643 16.8089C59.9613 16.8089 60.0604 16.7944 60.1579 16.7643L62.878 15.9254L62.8785 13.8403Z" fill="#DD9E5F"/>
<path id="Vector_12" d="M58.9128 12.0962C59.0446 12.5242 59.4389 12.7991 59.8643 12.7991C59.9613 12.7991 60.0604 12.7846 60.1579 12.7545L62.878 11.9156V9.83057L59.5706 10.8505C59.0451 11.0129 58.7504 11.5706 58.9128 12.0962Z" fill="#DD9E5F"/>
<path id="Vector_13" d="M54.7659 13.8403L51.4586 14.8608C50.9331 15.0227 50.6384 15.5804 50.8002 16.1059C50.9325 16.5339 51.3263 16.8089 51.7517 16.8089C51.8493 16.8089 51.9478 16.7944 52.0459 16.7643L54.7659 15.9254V13.8403Z" fill="#DD9E5F"/>
<path id="Vector_14" d="M50.8002 12.0962C50.9325 12.5242 51.3263 12.7991 51.7517 12.7991C51.8493 12.7991 51.9484 12.7846 52.0459 12.7545L54.7659 11.9156V9.83057L51.4586 10.8505C50.9331 11.0129 50.6384 11.5706 50.8002 12.0962Z" fill="#DD9E5F"/>
<path id="Vector_15" d="M50.8002 8.08643C50.9626 8.61197 51.5203 8.90613 52.0459 8.74478L54.7659 7.90536V5.82031L51.4586 6.84079C50.9331 7.00317 50.6384 7.56088 50.8002 8.08643Z" fill="#DD9E5F"/>
</g>
<path id="Vector_16" d="M43.8867 6.38379H38.915C38.3511 6.38379 37.894 6.84085 37.894 7.40479V9.18011C37.894 9.74405 38.3511 10.2011 38.915 10.2011H43.8867C44.4506 10.2011 44.9077 9.74405 44.9077 9.18011V7.40479C44.9077 6.84085 44.4506 6.38379 43.8867 6.38379Z" fill="#E2E9F2"/>
<path id="Vector_17" d="M34.2351 10.2012H29.7947C29.2307 10.2012 28.7737 10.6582 28.7737 11.2216V12.9975C28.7737 13.5614 29.2307 14.0185 29.7947 14.0185H34.2351C34.799 14.0185 35.2561 13.5614 35.2561 12.9975V11.2216C35.2561 10.6577 34.799 10.2012 34.2351 10.2012Z" fill="#E2E9F2"/>
<path id="Vector_18" d="M40.4175 9.18011V7.40427C40.4175 6.84085 40.8745 6.38379 41.4385 6.38379H38.915C38.3511 6.38379 37.894 6.84085 37.894 7.40427V9.18011C37.894 9.74405 38.3511 10.2011 38.915 10.2011H41.4385C40.8745 10.2011 40.4175 9.74405 40.4175 9.18011Z" fill="#C7D6E5"/>
<path id="Vector_19" d="M31.2971 12.9975V11.2216C31.2971 10.6577 31.7542 10.2012 32.3181 10.2012H29.7947C29.2307 10.2012 28.7737 10.6577 28.7737 11.2216V12.9975C28.7737 13.5614 29.2307 14.0185 29.7947 14.0185H32.3181C31.7542 14.0185 31.2971 13.5614 31.2971 12.9975Z" fill="#C7D6E5"/>
<path id="Vector_20" d="M66.8809 19.2791L64.5593 20.6866C63.9808 21.0374 63.2556 21.0374 62.6771 20.6866L60.1775 19.1712C59.5991 18.8205 58.8738 18.8205 58.2953 19.1712L55.7963 20.6866C55.2183 21.0374 54.4925 21.0374 53.9141 20.6866L51.4155 19.1712C50.8371 18.8205 50.1113 18.8205 49.5328 19.1712L47.0343 20.6866C46.4558 21.0374 45.73 21.0374 45.1521 20.6866L42.653 19.1718C42.0746 18.821 41.3493 18.821 40.7708 19.1718L38.2728 20.6866C37.6943 21.0374 36.9685 21.0374 36.3901 20.6866L33.8921 19.1718C33.3141 18.821 32.5883 18.821 32.0099 19.1718L29.5113 20.6866C28.9329 21.0374 28.2071 21.0374 27.6286 20.6866L25.308 19.2791C24.8167 18.9814 24.189 19.3352 24.189 19.9095V64.232C24.189 65.0071 24.8229 65.6416 25.598 65.6416H66.5904C67.3655 65.6416 68 65.0071 68 64.232V19.9095C68 19.3352 67.3722 18.9814 66.8809 19.2791Z" fill="#DD9E5F"/>
<path id="Vector_21" d="M30.8555 64.2322C30.8555 59.5619 30.8555 24.6416 30.8555 19.9096C30.8555 19.8961 30.8576 19.8832 30.8581 19.8697L29.5108 20.6863C28.9329 21.037 28.2071 21.037 27.6286 20.6863L25.308 19.2793C24.8167 18.9815 24.189 19.3353 24.189 19.9096V64.2322C24.189 65.0073 24.8229 65.6412 25.598 65.6412H32.2646C31.4895 65.6417 30.8555 65.0073 30.8555 64.2322Z" fill="#CE8A4D"/>
<path id="Vector_22" d="M24.189 60.4365V64.2321C24.189 65.0071 24.8229 65.6411 25.598 65.6411H66.5904C67.3655 65.6411 68 65.0071 68 64.2321V60.4365H24.189Z" fill="#CE8A4D"/>
<path id="Vector_23" d="M30.8555 64.232C30.8555 63.5498 30.8555 62.2212 30.8555 60.437H24.189V64.232C24.189 65.0071 24.8229 65.6416 25.598 65.6416H32.2646C31.4895 65.6416 30.8555 65.0071 30.8555 64.232Z" fill="#C17C44"/>
<path id="Vector_24" d="M10.0855 58.1657V45.9941H2.17847C3.92111 50.6151 6.64014 54.7561 10.0855 58.1657Z" fill="#E2E9F2"/>
<path id="Vector_25" d="M10.0854 58.1657V53.8711H6.41284C7.51788 55.4026 8.74588 56.8402 10.0854 58.1657Z" fill="#C7D6E5"/>
<path id="Vector_26" d="M43.2449 50.5136H40.9809C42.2146 50.5136 43.1785 49.228 42.8459 47.9803C42.6198 47.1284 41.8208 46.5795 40.9388 46.5795H28.6589C27.8947 46.5873 27.5564 45.6291 28.1588 45.1585L32.5385 41.7422C33.2897 40.9744 33.3343 39.7282 32.5805 38.9625C31.8127 38.1827 30.5577 38.1874 29.795 38.9661L26.1884 41.7697C24.5578 43.0377 22.8753 44.2366 21.1451 45.364C19.817 46.2288 18.2694 46.6973 16.6845 46.7144L14.6233 46.7289V60.1279L17.7677 60.102C18.0935 60.0984 18.4131 60.1933 18.6839 60.3738C20.5381 61.6117 22.7223 62.3188 24.951 62.295C27.7665 62.295 38.3002 62.2955 38.7246 62.2955C39.7918 62.2955 40.6566 61.4306 40.6566 60.364C40.6566 59.2968 39.7918 58.432 38.7246 58.432H40.8844C41.8441 58.432 42.6986 57.7674 42.8771 56.8242C43.1079 55.6071 42.17 54.473 40.9803 54.473H43.1484C44.1087 54.473 44.9626 53.8084 45.1416 52.8653C45.3725 51.6476 44.434 50.5136 43.2449 50.5136Z" fill="#F9D6BF"/>
<path id="Vector_27" d="M17.4523 53.1274C17.4523 50.2838 18.5724 47.7039 20.3929 45.7988C19.2479 46.3851 17.9784 46.7 16.6845 46.714L14.6228 46.7285V60.1275L17.7678 60.1016C18.0936 60.098 18.4131 60.1929 18.684 60.3734C19.7496 61.0852 20.9252 61.6201 22.1547 61.9428C19.319 60.0378 17.4523 56.8005 17.4523 53.1274Z" fill="#EFC1A8"/>
<path id="Vector_28" d="M14.9259 45.4136H9.79861C9.59888 45.4136 9.43701 45.5754 9.43701 45.7752V57.5078C11.0406 59.1825 12.8144 60.6927 14.7293 62.0125H14.9254C15.1251 62.0125 15.2875 61.8507 15.2875 61.6509V45.7752C15.2875 45.5754 15.1256 45.4136 14.9259 45.4136Z" fill="#F6A221"/>
<path id="Vector_29" d="M12.3999 56.3681C10.7636 56.3681 9.43701 55.0416 9.43701 53.4053V57.5079C11.0406 59.1826 12.8144 60.6928 14.7293 62.0127H14.9254C15.1251 62.0127 15.2875 61.8508 15.2875 61.6511V53.481C15.2875 55.0753 13.9947 56.3681 12.3999 56.3681Z" fill="#F28A00"/>
</g>
<defs>
<clipPath id="clip0_133_28138">
<rect width="68" height="68" fill="white"/>
</clipPath>
</defs>
</svg>
