<svg width="20" height="20" viewBox="0 0 20 20" fill="none" xmlns="http://www.w3.org/2000/svg">
<g clip-path="url(#clip0_126_11358)">
<path d="M18.3333 10.833C18.1122 10.833 17.9003 10.9208 17.744 11.0771C17.5877 11.2334 17.4999 11.4453 17.4999 11.6663V15.1772C17.4993 15.7929 17.2544 16.3833 16.8189 16.8187C16.3835 17.2541 15.7932 17.499 15.1774 17.4997H4.82242C4.20666 17.499 3.6163 17.2541 3.18089 16.8187C2.74548 16.3833 2.50058 15.7929 2.49992 15.1772V11.6663C2.49992 11.4453 2.41212 11.2334 2.25584 11.0771C2.09956 10.9208 1.8876 10.833 1.66659 10.833C1.44557 10.833 1.23361 10.9208 1.07733 11.0771C0.921049 11.2334 0.833252 11.4453 0.833252 11.6663V15.1772C0.834355 16.2348 1.255 17.2488 2.00287 17.9967C2.75074 18.7446 3.76476 19.1652 4.82242 19.1663H15.1774C16.2351 19.1652 17.2491 18.7446 17.997 17.9967C18.7448 17.2488 19.1655 16.2348 19.1666 15.1772V11.6663C19.1666 11.4453 19.0788 11.2334 18.9225 11.0771C18.7662 10.9208 18.5543 10.833 18.3333 10.833Z" fill="#6200EE"/>
<path d="M5.58926 7.25631L9.16676 3.67881V14.1671C9.16676 14.3882 9.25456 14.6001 9.41084 14.7564C9.56712 14.9127 9.77908 15.0005 10.0001 15.0005C10.2211 15.0005 10.4331 14.9127 10.5894 14.7564C10.7456 14.6001 10.8334 14.3882 10.8334 14.1671V3.67881L14.4109 7.25631C14.5681 7.4081 14.7786 7.4921 14.9971 7.4902C15.2156 7.4883 15.4246 7.40066 15.5791 7.24615C15.7336 7.09165 15.8213 6.88264 15.8232 6.66414C15.8251 6.44564 15.7411 6.23514 15.5893 6.07797L10.5893 1.07797C10.433 0.921747 10.2211 0.833984 10.0001 0.833984C9.77913 0.833984 9.5672 0.921747 9.41093 1.07797L4.41093 6.07797C4.25913 6.23514 4.17513 6.44564 4.17703 6.66414C4.17893 6.88264 4.26657 7.09165 4.42108 7.24615C4.57559 7.40066 4.7846 7.4883 5.00309 7.4902C5.22159 7.4921 5.43209 7.4081 5.58926 7.25631Z" fill="#6200EE"/>
</g>
<defs>
<clipPath id="clip0_126_11358">
<rect width="20" height="20" fill="white"/>
</clipPath>
</defs>
</svg>
