<svg width="24" height="24" viewBox="0 0 24 24" fill="none" xmlns="http://www.w3.org/2000/svg">
<path fill-rule="evenodd" clip-rule="evenodd" d="M9.86338 17.9999C9.58738 17.9999 9.32338 17.8859 9.13438 17.6849L4.27138 12.5059C3.89238 12.1039 3.91338 11.4709 4.31538 11.0929C4.71838 10.7149 5.35138 10.7349 5.72838 11.1369L9.85338 15.5279L18.2614 6.32587C18.6354 5.91687 19.2674 5.88987 19.6754 6.26187C20.0824 6.63387 20.1104 7.26687 19.7384 7.67387L10.6014 17.6739C10.4144 17.8799 10.1484 17.9979 9.87038 17.9999H9.86338Z" fill="#1152FD"/>
<path d="M12 22C17.5228 22 22 17.5228 22 12C22 6.47715 17.5228 2 12 2C6.47715 2 2 6.47715 2 12C2 17.5228 6.47715 22 12 22Z" fill="#28BB7C"/>
<path d="M8.42188 12.4766L10.6998 14.7773L16.0608 9.41699" fill="#28BB7C"/>
<path d="M8.42188 12.4766L10.6998 14.7773L16.0608 9.41699" stroke="white" stroke-width="2" stroke-linecap="round" stroke-linejoin="round"/>
</svg>
